<?xml version="1.0" encoding="UTF-8"?>
<svg version="1.1" xmlns="http://www.w3.org/2000/svg" width="1600" height="1000">
<path d="M0 0 C0.9541007 -0.00115384 1.90820141 -0.00230769 2.89121425 -0.0034965 C6.10070184 -0.00615155 9.31013966 -0.00165009 12.51962471 0.00279331 C14.83881617 0.00235738 17.15800757 0.00148208 19.47719872 0.00020415 C25.19031671 -0.00180149 30.9034194 0.00085196 36.61653559 0.00544482 C43.45928151 0.01068164 50.30202376 0.01010045 57.14477121 0.00930037 C69.77307012 0.00798639 82.40136379 0.01132816 95.02966118 0.01731777 C107.53435352 0.02323357 120.03904368 0.02708347 132.54373741 0.02817059 C133.70972957 0.0282737 133.70972957 0.0282737 134.89927713 0.02837889 C138.84688857 0.02871722 142.79450001 0.0290186 146.74211146 0.02930576 C174.70743027 0.03140651 202.67274623 0.03814482 230.63806343 0.04760838 C257.80700859 0.05679183 284.97595297 0.06387593 312.14489937 0.06811619 C313.40096368 0.06831348 313.40096368 0.06831348 314.68240303 0.06851475 C323.09163267 0.06983327 331.50086231 0.07110908 339.91009195 0.07235361 C357.04086154 0.07488987 374.17163107 0.07771112 391.30240059 0.08070469 C392.09005614 0.08084198 392.87771168 0.08097927 393.68923558 0.08112072 C417.83313842 0.08534405 441.97704077 0.09077541 466.12094307 0.0973978 C467.14920811 0.09767914 467.14920811 0.09767914 468.19824618 0.09796616 C495.96562038 0.10558172 523.7329942 0.11447545 551.50036812 0.12304783 C551.50036812 66.12304783 551.50036812 132.12304783 551.50036812 200.12304783 C485.40203034 200.18344017 485.40203034 200.18344017 464.95251656 200.1999979 C464.22319701 200.2005899 463.49387747 200.2011819 462.74245733 200.20179184 C438.19464039 200.221664 413.64682261 200.23741735 389.09900093 200.25007725 C388.29796473 200.25049142 387.49692852 200.25090559 386.67161849 200.25133231 C369.26347228 200.26031077 351.85532581 200.26862135 334.44717896 200.27624382 C325.91038388 200.27998587 317.37358888 200.28387552 308.8367939 200.28784275 C307.98727448 200.28823503 307.13775506 200.2886273 306.26249263 200.28903147 C278.72087142 200.30181838 251.17926867 200.32435446 223.63765864 200.35193949 C195.33805596 200.38023227 167.0384635 200.398703 138.73884692 200.4047928 C134.74288057 200.40565728 130.74691426 200.40663419 126.75094795 200.40767956 C125.96447471 200.40788183 125.17800147 200.4080841 124.36769571 200.40829249 C111.70121427 200.41183938 99.03476439 200.42575825 86.36829583 200.44354393 C73.63811336 200.46119816 60.90796221 200.46795364 48.17776793 200.46355196 C41.27868521 200.46146931 34.37968712 200.46423447 27.48062134 200.48066425 C21.16774396 200.49522838 14.85502193 200.49602277 8.5421375 200.48574451 C6.25533154 200.48447357 3.968516 200.48830848 1.68172896 200.49769738 C-1.42202679 200.5097021 -4.52521862 200.50326828 -7.62896538 200.49219131 C-8.96675005 200.50401288 -8.96675005 200.50401288 -10.33156067 200.51607326 C-16.65557152 200.46492631 -22.45263617 199.60534935 -27.52306938 195.47461033 C-28.19209282 194.61996189 -28.19209282 194.61996189 -28.87463188 193.74804783 C-29.56685844 192.90113377 -29.56685844 192.90113377 -30.27306938 192.03711033 C-34.31164397 185.7348761 -34.06013851 179.39125675 -33.49963188 172.12304783 C-31.59197425 165.68470331 -26.39980216 161.65108152 -20.91896439 158.09848213 C-12.96492709 153.80840079 -4.21948221 154.57285838 4.54870796 154.62475681 C6.37766143 154.62092978 8.20661188 154.61530746 10.03555489 154.60803318 C13.9593525 154.59611827 17.88288234 154.59654391 21.80668449 154.60662746 C28.00843841 154.62222207 34.20991849 154.6084888 40.41165352 154.59059238 C52.4472392 154.55982374 64.48274049 154.55827049 76.51835823 154.56024265 C91.86027813 154.56163734 107.2021339 154.55136317 122.54400599 154.51166493 C128.71256031 154.49670546 134.88087151 154.49701954 141.04942966 154.50914276 C144.87799516 154.51384023 148.70646675 154.5063556 152.53501701 154.49559879 C154.31402846 154.49318496 156.09305538 154.49595496 157.87204933 154.50420666 C160.29457862 154.51477459 162.7163822 154.50711806 165.13888741 154.49485874 C165.84772619 154.5024348 166.55656497 154.51001085 167.28688371 154.51781648 C170.16278368 154.48681118 172.07085061 154.41709963 174.47999191 152.7677784 C175.77535107 151.06029508 175.77535107 151.06029508 175.18786812 148.43554783 C174.96099312 147.67242283 174.73411812 146.90929783 174.50036812 146.12304783 C170.9045043 144.92442656 167.63315485 144.98282463 163.89091682 144.99174595 C163.10854489 144.98963023 162.32617296 144.98751452 161.52009279 144.98533469 C158.89005017 144.97932785 156.26005545 144.98033533 153.63000679 144.98120213 C151.747697 144.97817109 149.86538794 144.97464979 147.98307991 144.97067356 C143.92503655 144.96277999 139.867002 144.95763792 135.80895233 144.9543829 C129.39269374 144.94847769 122.97649076 144.93194206 116.56025887 144.91304111 C114.3645182 144.90670361 112.1687775 144.90037799 109.97303677 144.89406395 C108.87334674 144.89089814 107.77365672 144.88773233 106.64064276 144.88447058 C91.70025834 144.84237572 76.75989969 144.80941452 61.81945992 144.79712009 C51.74530968 144.78874487 41.67129693 144.7662741 31.59721547 144.72776443 C26.26497807 144.70798562 20.9329463 144.69560527 15.60066986 144.70059872 C10.58469415 144.70523872 5.56910832 144.69147511 0.55321121 144.66358662 C-1.28741107 144.65666395 -3.12807357 144.65655982 -4.96869469 144.66378689 C-7.48267118 144.67266067 -9.99535791 144.6570063 -12.50922966 144.63530064 C-13.23676832 144.64374317 -13.96430699 144.65218571 -14.71389228 144.66088408 C-20.51251971 144.56837628 -23.97331288 142.52059815 -28.10900688 138.59570408 C-32.20491054 133.53193277 -33.94026373 129.78391516 -33.75353813 123.17382908 C-33.0669279 117.62813109 -30.26956892 113.11474587 -26.49963188 109.12304783 C-21.07622595 105.32666368 -16.80853379 104.99766032 -10.26073647 104.98438263 C-9.52674366 104.98154041 -8.79275085 104.97869819 -8.03651583 104.97576985 C-5.56374037 104.96741222 -3.0910117 104.9661538 -0.61822319 104.96482944 C1.16714392 104.96026482 2.95250996 104.95526495 4.73787475 104.94986588 C9.65431489 104.93626401 14.57074811 104.92886048 19.48720217 104.92243922 C24.78507648 104.91444427 30.08293633 104.90074338 35.38080025 104.88772678 C44.56317124 104.86595118 53.74554369 104.84781065 62.92792702 104.83212185 C76.2041997 104.8094331 89.48045638 104.78128889 102.75671551 104.75180257 C124.29528275 104.70411446 145.83385654 104.66085358 167.37243843 104.62036228 C188.29822486 104.58101356 209.22400547 104.53958883 230.14978218 104.49536228 C232.08377897 104.49127587 232.08377897 104.49127587 234.05684641 104.48710691 C240.52488273 104.47342754 246.99291896 104.45970724 253.46095514 104.4459666 C307.14074735 104.33198267 360.82055214 104.22517755 414.50036812 104.12304783 C414.66717921 101.20652609 414.66717921 101.20652609 414.50036812 98.12304783 C411.61594656 95.23862627 409.58792022 95.8728491 405.54553223 95.87250805 C404.81793225 95.86971037 404.09033228 95.8669127 403.34068382 95.86403024 C400.87746175 95.85701464 398.41448422 95.8643575 395.95126534 95.87149143 C394.17745056 95.86935492 392.40363666 95.86633103 390.62982476 95.86249101 C385.73568469 95.85441493 380.84162056 95.85877485 375.94748068 95.86500978 C370.6766873 95.86952729 365.4059088 95.86251185 360.13511848 95.85670567 C350.99473613 95.84805636 341.85437313 95.84626847 332.71398735 95.84865284 C319.48967135 95.85174436 306.26539833 95.84013292 293.04109313 95.82410304 C271.57602457 95.79811478 250.11095598 95.77811009 228.64587593 95.76464939 C226.71728771 95.76343384 226.71728771 95.76343384 224.74973811 95.76219372 C206.50906276 95.75097555 188.26839046 95.74569218 170.02771212 95.7428066 C168.74380579 95.74260261 167.45989945 95.74239862 166.13708687 95.74218845 C164.21356724 95.74188855 164.21356724 95.74188855 162.25118862 95.74158259 C140.87574886 95.73785105 119.50035557 95.71877376 98.12493908 95.68709409 C84.93354226 95.66816227 71.74226454 95.66222865 58.55085786 95.67291127 C49.51059475 95.67922505 40.47041709 95.67120484 31.43017273 95.65185715 C26.21201157 95.64116192 20.99405782 95.63704606 15.77589798 95.65032864 C10.99885982 95.66236634 6.22221082 95.65604906 1.44520654 95.63513665 C-0.2829905 95.63082892 -2.01122037 95.63328188 -3.73939444 95.64317782 C-21.74863631 95.73881582 -21.74863631 95.73881582 -28.55822563 89.12304783 C-29.01326469 88.46304783 -29.46830376 87.80304783 -29.93713188 87.12304783 C-30.41021782 86.46304783 -30.88330376 85.80304783 -31.37072563 85.12304783 C-34.00895684 80.44908804 -34.13742537 75.36303876 -33.10900688 70.13867283 C-31.29052175 64.12368354 -27.47739562 60.7691805 -22.49963188 57.12304783 C-19.83796702 55.7922154 -17.82493235 55.99443218 -14.84268856 55.98996925 C-13.02638316 55.98360768 -13.02638316 55.98360768 -11.17338473 55.9771176 C-9.81753923 55.97742331 -8.46169376 55.97781651 -7.10584831 55.9782877 C-5.67495355 55.97515568 -4.24405969 55.97158128 -2.81316704 55.96760029 C1.13286994 55.95787624 5.07889244 55.95434759 9.02493966 55.95175731 C13.27517908 55.94787124 17.52540562 55.93823363 21.77563667 55.92920017 C29.14479435 55.91424492 36.513951 55.90270795 43.88311768 55.89325237 C54.54106814 55.87939823 65.19899476 55.85821358 75.85692812 55.83482384 C93.151562 55.79688427 110.44620019 55.761923 127.74084663 55.73022556 C129.29458472 55.72737482 129.29458472 55.72737482 130.87971146 55.7244665 C145.58366169 55.69762749 160.28761527 55.67375631 174.99157245 55.65108149 C176.02709465 55.64948419 177.06261685 55.64788689 178.12951851 55.64624119 C179.16378432 55.64464772 180.19805013 55.64305426 181.26365732 55.6414125 C198.49079176 55.6146723 215.71790078 55.58028478 232.94500786 55.53958744 C243.5798208 55.51477301 254.21460634 55.4964684 264.84944368 55.48643183 C272.13291879 55.47905686 279.41635714 55.46455505 286.69980793 55.4443676 C290.90668619 55.43294416 295.11350508 55.42484411 299.32040024 55.42537594 C303.16756267 55.42580184 307.0145913 55.41715365 310.86171938 55.40112614 C312.2573908 55.39695172 313.65307723 55.39619074 315.04875188 55.39909024 C316.93836795 55.40253548 318.82799454 55.39263227 320.71758366 55.38196754 C322.29540415 55.37936317 322.29540415 55.37936317 323.90509981 55.37670618 C326.73682955 55.30566861 326.73682955 55.30566861 329.50036812 53.12304783 C330.00036812 50.62304783 330.00036812 50.62304783 329.50036812 48.12304783 C326.05557872 45.82652156 324.79966432 45.87224128 320.74437428 45.86971474 C319.53684645 45.86409934 318.32931863 45.85848395 317.08519906 45.85269839 C315.73829263 45.8565483 314.3913867 45.86057603 313.04448128 45.86476231 C311.61898536 45.86190919 310.19349099 45.85817202 308.76799947 45.85362381 C304.84138926 45.84361442 300.91486808 45.84602377 296.98825109 45.85035074 C292.75705489 45.85282141 288.52588242 45.84376578 284.2946949 45.83596897 C276.9593859 45.82390979 269.62409866 45.81881529 262.28878021 45.81808758 C251.67653001 45.81676355 241.06433271 45.80166599 230.45210115 45.78259241 C213.22690436 45.7517309 196.00170623 45.72757482 178.77649117 45.70971775 C177.74500882 45.70864507 176.71352648 45.70757239 175.65078709 45.7064672 C164.14384115 45.69464821 152.63689468 45.6844432 141.12994576 45.67602634 C136.95841661 45.67295252 132.78688747 45.66986372 128.61535835 45.666749 C127.07137853 45.66560099 127.07137853 45.66560099 125.4962072 45.66442979 C108.34021282 45.65135342 91.18425665 45.62672035 74.02829057 45.5930056 C63.44176765 45.57269988 52.85532645 45.56242838 42.2687839 45.5649948 C35.01518989 45.566029 27.76166049 45.55640701 20.50808903 45.53835578 C16.32105389 45.52829958 12.13416171 45.52319462 7.94711876 45.53112316 C4.11459394 45.53829417 0.28234777 45.53173723 -3.55014154 45.51423775 C-4.93708947 45.5103508 -6.32406278 45.5115383 -7.7109997 45.51829464 C-9.59602666 45.52674953 -11.48111185 45.51497611 -13.36611462 45.50222206 C-14.41327595 45.5014076 -15.46043728 45.50059315 -16.53933078 45.49975401 C-22.77174052 44.70666331 -26.47681617 41.59799214 -30.24181938 36.87695408 C-33.58207169 32.21927306 -34.12781809 27.75645966 -33.49963188 22.12304783 C-32.13658349 15.0351962 -28.90577721 9.88304033 -23.49963188 5.12304783 C-16.14526765 0.21067326 -8.59664275 -0.02553898 0 0 Z " fill="#FFBD28" transform="translate(526.4996318817139,399.8769521713257)"/>
<path d="M0 0 C116.94608696 0 116.94608696 0 150.25 33.24609375 C170.01342023 54.28332817 175.83514595 81.12573282 175.13623047 109.10839844 C174.13473199 130.36601138 164.24944344 151.43998902 150 167 C149.22914063 167.85207031 148.45828125 168.70414063 147.6640625 169.58203125 C129.47045351 188.74714364 105.8760782 197.64762925 80 200 C53.6 200 27.2 200 0 200 C0 134 0 68 0 0 Z " fill="#FA5D8B" transform="translate(1104,400)"/>
<path d="M0 0 C0.98066404 2.94199213 1.02238277 4.47374037 0.875 7.5 C0.81960194 17.04231499 3.89323938 24.534896 8.98828125 32.4921875 C10 35 10 35 9.32421875 37.51953125 C8.88722656 38.33808594 8.45023437 39.15664063 8 40 C7.5978125 40.79019531 7.195625 41.58039063 6.78125 42.39453125 C6.3584375 43.19246094 5.935625 43.99039063 5.5 44.8125 C0.01789692 55.77670616 -0.2256734 66.23314136 2.92578125 78.0703125 C4.38296373 82.04444654 6.50965714 85.33148571 8.98828125 88.74609375 C10 91 10 91 9.32421875 93.48828125 C8.88722656 94.31714844 8.45023437 95.14601563 8 96 C7.5978125 96.77859375 7.195625 97.5571875 6.78125 98.359375 C6.3584375 99.14828125 5.935625 99.9371875 5.5 100.75 C-0.34115359 112.41507664 -0.27195697 123.68092156 3.76953125 135.98046875 C5.18059113 139.44316491 6.91975107 142.29911563 9.2421875 145.21875 C10 147 10 147 9.2890625 149.421875 C8.05810361 151.88379277 6.80022241 154.32397526 5.5 156.75 C0.97641776 165.81050837 0.72055176 173.95538816 1 184 C-3.05737215 182.47265862 -6.85965891 180.57811579 -10.6796875 178.54296875 C-11.32040695 178.20378418 -11.9611264 177.86459961 -12.6212616 177.51513672 C-14.70749306 176.40900335 -16.79138331 175.29855002 -18.875 174.1875 C-19.59074188 173.80695465 -20.30648376 173.4264093 -21.04391479 173.03433228 C-31.05965643 167.70680419 -40.98221338 162.24150483 -50.82763672 156.60424805 C-58.2313472 152.38364468 -65.75920525 148.44060718 -73.33544922 144.5402832 C-83.31170668 139.37722268 -93.06243775 133.82811178 -102.79956055 128.22998047 C-104.83376883 127.0929183 -106.91559818 126.04220091 -109 125 C-109 103.22 -109 81.44 -109 59 C-99.76 54.05 -90.52 49.1 -81 44 C-68.42287869 37.20327283 -55.85886968 30.38383284 -43.31176758 23.53198242 C-35.34458327 19.18291321 -27.36443445 14.85795854 -19.38085938 10.5390625 C-12.91313084 7.03961517 -6.4536655 3.52531576 0 0 Z " fill="#D39C6C" transform="translate(478,408)"/>
<path d="M0 0 C0 18.15 0 36.3 0 55 C-19.41509434 45.29245283 -19.41509434 45.29245283 -26.75 41.3125 C-27.59820312 40.86583984 -28.44640625 40.41917969 -29.3203125 39.95898438 C-33.7865564 37.53213734 -37.30839291 35.47877632 -40 31 C-40.53125 28.9375 -40.53125 28.9375 -40.5 27 C-40.5103125 26.360625 -40.520625 25.72125 -40.53125 25.0625 C-39.48060811 20.98353735 -36.70882894 18.46462814 -33.27026367 16.21069336 C-32.24650635 15.67581299 -31.22274902 15.14093262 -30.16796875 14.58984375 C-29.03939453 13.99236328 -27.91082031 13.39488281 -26.74804688 12.77929688 C-25.56139572 12.16498235 -24.37454524 11.55105269 -23.1875 10.9375 C-20.86815789 9.71807858 -18.54913834 8.49804345 -16.23046875 7.27734375 C-15.14427246 6.71128418 -14.05807617 6.14522461 -12.93896484 5.56201172 C-10.53822135 4.28605584 -8.1962968 2.96008414 -5.86328125 1.56640625 C-3 0 -3 0 0 0 Z " fill="#606063" transform="translate(361,473)"/>
<path d="M0 0 C0.66 0.33 1.32 0.66 2 1 C-0.97 3.97 -3.94 6.94 -7 10 C-7 6.04435836 -5.59478606 4.89133304 -3 2 C-2.01 1.34 -1.02 0.68 0 0 Z " fill="#FFD26F" transform="translate(503,507)"/>
</svg>
