<svg version="1.1" xmlns="http://www.w3.org/2000/svg" width="1000" height="625" viewBox="0 0 1000 625"><path d="m329.063 249.923 1.806 -0.003q3.009 -0.001 6.019 0.004l4.348 -0.002q5.356 -0.002 10.713 0.003 6.415 0.004 12.829 0.003 11.839 -0.001 23.678 0.005a60718.125 60718.125 0 0 0 32.321 0.007q26.217 0.003 52.435 0.012 25.471 0.009 50.942 0.013h1.586l47.888 0.008h1.492l46.568 0.011L673.75 250v125c-41.311 0.037 -41.311 0.037 -54.093 0.048l-1.381 0.001a156659.375 156659.375 0 0 1 -47.544 0.031 419034.375 419034.375 0 0 1 -48.648 0.022l-1.609 0.001q-25.82 0.013 -51.641 0.039a67631.875 67631.875 0 0 1 -60.554 0.035h-1.49q-11.875 0.005 -23.75 0.022 -11.934 0.017 -23.869 0.013c-4.312 -0.001 -8.624 0.001 -12.936 0.011q-5.918 0.013 -11.836 0.003 -2.144 -0.002 -4.288 0.007c-1.94 0.007 -3.88 0.003 -5.819 -0.004l-1.689 0.015c-3.952 -0.032 -7.576 -0.569 -10.744 -3.151l-0.845 -1.079 -0.874 -1.069c-2.524 -3.939 -2.367 -7.904 -2.017 -12.447 1.192 -4.024 4.438 -6.545 7.862 -8.766 4.972 -2.681 10.438 -2.203 15.918 -2.171q1.715 -0.004 3.429 -0.011 3.679 -0.011 7.357 -0.001c3.876 0.009 7.752 0.001 11.628 -0.01 7.522 -0.019 15.044 -0.021 22.567 -0.019 9.589 0 19.178 -0.006 28.766 -0.031q5.783 -0.013 11.566 -0.001c2.393 0.003 4.786 -0.002 7.179 -0.008q1.667 -0.003 3.336 0.005c1.514 0.006 3.028 0.002 4.542 -0.006l1.343 0.015c1.797 -0.019 2.989 -0.063 4.496 -1.094 0.809 -1.067 0.809 -1.067 0.443 -2.708L438.125 341.25c-2.248 -0.749 -4.292 -0.712 -6.631 -0.707l-1.481 -0.004q-2.466 -0.004 -4.931 -0.003l-3.529 -0.006q-3.804 -0.007 -7.609 -0.011 -6.016 -0.006 -12.031 -0.026l-6.199 -0.018c-9.338 -0.026 -18.675 -0.047 -28.012 -0.054q-9.446 -0.007 -18.889 -0.044 -4.999 -0.02 -9.998 -0.016 -4.702 0.003 -9.404 -0.023 -1.725 -0.006 -3.451 0c-1.571 0.006 -3.142 -0.004 -4.713 -0.018l-1.378 0.016c-3.624 -0.058 -5.787 -1.338 -8.372 -3.791 -2.56 -3.165 -3.645 -5.507 -3.528 -9.639 0.429 -3.466 2.178 -6.288 4.534 -8.782 3.389 -2.373 6.057 -2.578 10.149 -2.587l1.39 -0.005c1.546 -0.006 3.091 -0.006 4.636 -0.007l3.348 -0.009q4.609 -0.013 9.218 -0.018 4.967 -0.008 9.933 -0.021 8.609 -0.021 17.217 -0.035 12.446 -0.022 24.893 -0.05 20.192 -0.044 40.385 -0.083 19.619 -0.036 39.236 -0.078l2.442 -0.005 12.128 -0.026q50.325 -0.106 100.649 -0.202c0.104 -1.823 0.104 -1.823 0 -3.75 -1.802 -1.802 -3.07 -1.406 -5.597 -1.406l-1.378 -0.006c-1.539 -0.004 -3.079 0 -4.619 0.004q-1.663 -0.002 -3.325 -0.006c-3.059 -0.005 -6.118 -0.002 -9.177 0.002 -3.294 0.003 -6.588 -0.002 -9.883 -0.005q-8.569 -0.007 -17.138 -0.005c-8.266 0.002 -16.531 -0.006 -24.796 -0.016q-20.123 -0.024 -40.247 -0.037l-2.436 -0.001a74869.375 74869.375 0 0 0 -36.633 -0.013h-2.429q-20.04 -0.004 -40.079 -0.034 -12.367 -0.019 -24.734 -0.009a5971.25 5971.25 0 0 1 -16.95 -0.013c-3.261 -0.006 -6.522 -0.009 -9.784 -0.001q-4.479 0.011 -8.957 -0.009a394.375 394.375 0 0 0 -3.241 0.005c-11.256 0.06 -11.256 0.06 -15.512 -4.075l-0.861 -1.25 -0.896 -1.25c-1.649 -2.921 -1.729 -6.1 -1.086 -9.365C309.506 290 311.889 287.904 315 285.625c1.664 -0.831 2.922 -0.706 4.786 -0.708l2.294 -0.008 2.542 0.001 2.683 -0.006q3.7 -0.009 7.399 -0.01 3.984 -0.005 7.969 -0.014 6.909 -0.014 13.818 -0.022 9.992 -0.014 19.984 -0.036 16.213 -0.036 32.427 -0.066l1.963 -0.004a97350.625 97350.625 0 0 1 29.531 -0.049l1.958 -0.003q16.151 -0.025 32.301 -0.063a14350 14350 0 0 1 19.94 -0.034q6.829 -0.006 13.656 -0.026 3.944 -0.012 7.888 -0.012 3.606 0 7.213 -0.015 1.309 -0.004 2.617 -0.001c1.181 0.002 2.362 -0.004 3.544 -0.011l1.992 -0.003c1.769 -0.044 1.769 -0.044 3.497 -1.409 0.313 -1.563 0.313 -1.563 0 -3.125 -2.153 -1.436 -2.938 -1.406 -5.473 -1.408l-2.288 -0.011 -2.525 0.007 -2.672 -0.007c-2.454 -0.006 -4.909 -0.005 -7.362 -0.003 -2.644 0.002 -5.289 -0.004 -7.934 -0.009q-6.876 -0.011 -13.754 -0.011c-6.633 -0.001 -13.265 -0.01 -19.898 -0.022a42780 42780 0 0 0 -34.251 -0.048 72974.375 72974.375 0 0 0 -29.397 -0.025l-1.95 -0.001q-16.083 -0.013 -32.167 -0.044 -9.925 -0.019 -19.85 -0.018a5168.75 5168.75 0 0 1 -13.6 -0.017q-3.925 -0.011 -7.851 -0.004 -3.593 0.006 -7.186 -0.011a338.75 338.75 0 0 0 -2.6 0.003c-1.178 0.006 -2.356 -0.002 -3.534 -0.01l-1.984 -0.001c-3.895 -0.496 -6.211 -2.439 -8.564 -5.389 -2.087 -2.911 -2.429 -5.7 -2.036 -9.221 0.852 -4.43 2.871 -7.65 6.25 -10.625 4.596 -3.07 9.314 -3.218 14.688 -3.202" fill="#FFBD28"/><path d="M690 250c73.091 0 73.091 0 93.906 20.779 12.352 13.148 15.991 29.925 15.554 47.414 -0.626 13.286 -6.804 26.457 -15.71 36.183l-1.46 1.614C770.919 367.967 756.173 373.53 740 375h-50z" fill="#FA5D8B"/><path d="M298.75 255c0.613 1.839 0.639 2.796 0.547 4.688 -0.034 5.964 1.886 10.647 5.071 15.62C305 276.875 305 276.875 304.577 278.45L303.75 280l-0.762 1.497 -0.801 1.511c-3.426 6.853 -3.579 13.388 -1.609 20.786 0.911 2.484 2.24 4.538 3.789 6.673C305 311.875 305 311.875 304.577 313.43L303.75 315l-0.762 1.475 -0.801 1.494c-3.651 7.291 -3.607 14.331 -1.081 22.019 0.881 2.164 1.969 3.95 3.42 5.774 0.474 1.113 0.474 1.113 0.029 2.627a181.875 181.875 0 0 1 -2.368 4.58c-2.828 5.663 -2.988 10.753 -2.813 17.031 -2.536 -0.954 -4.913 -2.139 -7.3 -3.411l-1.213 -0.643q-1.956 -1.037 -3.909 -2.079l-1.356 -0.721a681.875 681.875 0 0 1 -18.615 -10.269c-4.627 -2.637 -9.332 -5.102 -14.067 -7.54 -6.236 -3.227 -12.329 -6.695 -18.416 -10.194 -1.271 -0.711 -2.572 -1.368 -3.875 -2.019v-41.25l17.5 -9.375a6105 6105 0 0 0 23.555 -12.793c4.979 -2.719 9.968 -5.421 14.957 -8.121Q292.7 258.306 298.75 255" fill="#D39C6C"/><path d="M225.625 295.625v34.375c-12.134 -6.067 -12.134 -6.067 -16.719 -8.554l-1.606 -0.846c-2.792 -1.517 -4.993 -2.8 -6.675 -5.599 -0.332 -1.289 -0.332 -1.289 -0.313 -2.5l-0.019 -1.211c0.656 -2.55 2.389 -4.124 4.537 -5.533l1.939 -1.013 2.138 -1.131 2.225 -1.151 4.349 -2.288 2.057 -1.073a101.25 101.25 0 0 0 4.422 -2.498C223.75 295.625 223.75 295.625 225.625 295.625" fill="#606063"/><path d="m314.375 316.875 1.25 0.625 -5.625 5.625c0 -2.473 0.878 -3.193 2.5 -5z" fill="#FFD26F"/></svg>